<?xml version="1.0" encoding="UTF-8" standalone="no"?>
<!-- Generator: Adobe Illustrator 16.0.0, SVG Export Plug-In . SVG Version: 6.00 Build 0)  -->

<svg
   xmlns:dc="http://purl.org/dc/elements/1.1/"
   xmlns:cc="http://creativecommons.org/ns#"
   xmlns:rdf="http://www.w3.org/1999/02/22-rdf-syntax-ns#"
   xmlns:svg="http://www.w3.org/2000/svg"
   xmlns="http://www.w3.org/2000/svg"
   xmlns:sodipodi="http://sodipodi.sourceforge.net/DTD/sodipodi-0.dtd"
   xmlns:inkscape="http://www.inkscape.org/namespaces/inkscape"
   version="1.1"
   id="Capa_1"
   x="0px"
   y="0px"
   width="16"
   height="16"
   viewBox="0 0 16 16"
   xml:space="preserve"
   inkscape:version="0.91 r13725"
   sodipodi:docname="16x16_stop.svg"><metadata
     id="metadata5077"><rdf:RDF><cc:Work
         rdf:about=""><dc:format>image/svg+xml</dc:format><dc:type
           rdf:resource="http://purl.org/dc/dcmitype/StillImage" /><dc:title></dc:title></cc:Work></rdf:RDF></metadata><defs
     id="defs5075" /><sodipodi:namedview
     pagecolor="#ffffff"
     bordercolor="#666666"
     borderopacity="1"
     objecttolerance="10"
     gridtolerance="10"
     guidetolerance="10"
     inkscape:pageopacity="0"
     inkscape:pageshadow="2"
     inkscape:window-width="640"
     inkscape:window-height="480"
     id="namedview5073"
     showgrid="false"
     inkscape:zoom="1.6605677"
     inkscape:cx="180.36"
     inkscape:cy="180.36"
     inkscape:window-x="0"
     inkscape:window-y="0"
     inkscape:window-maximized="0"
     inkscape:current-layer="Capa_1" /><g
     id="g5038"
     transform="translate(0,-344.72)"><g
       id="Layer_8_68_"><path
         d="m 360.72,352.99 c 0,4.269 -3.459,7.727 -7.728,7.727 l -345.27,0 C 3.459,360.717 0,357.259 0,352.99 L 0,7.724 C 0,3.461 3.459,0.003 7.722,0.003 l 345.271,0 c 4.259,0 7.716,3.458 7.716,7.721 l 0,345.266 0.011,0 z"
         id="path5041"
         inkscape:connector-curvature="0" /></g></g><g
     id="g5043"
     transform="translate(0,-344.72)" /><g
     id="g5045"
     transform="translate(0,-344.72)" /><g
     id="g5047"
     transform="translate(0,-344.72)" /><g
     id="g5049"
     transform="translate(0,-344.72)" /><g
     id="g5051"
     transform="translate(0,-344.72)" /><g
     id="g5053"
     transform="translate(0,-344.72)" /><g
     id="g5055"
     transform="translate(0,-344.72)" /><g
     id="g5057"
     transform="translate(0,-344.72)" /><g
     id="g5059"
     transform="translate(0,-344.72)" /><g
     id="g5061"
     transform="translate(0,-344.72)" /><g
     id="g5063"
     transform="translate(0,-344.72)" /><g
     id="g5065"
     transform="translate(0,-344.72)" /><g
     id="g5067"
     transform="translate(0,-344.72)" /><g
     id="g5069"
     transform="translate(0,-344.72)" /><g
     id="g5071"
     transform="translate(0,-344.72)" /></svg>