<?xml version="1.0" encoding="UTF-8" standalone="no"?>
<!-- Generator: Adobe Illustrator 16.0.0, SVG Export Plug-In . SVG Version: 6.00 Build 0)  -->

<svg
   xmlns:dc="http://purl.org/dc/elements/1.1/"
   xmlns:cc="http://creativecommons.org/ns#"
   xmlns:rdf="http://www.w3.org/1999/02/22-rdf-syntax-ns#"
   xmlns:svg="http://www.w3.org/2000/svg"
   xmlns="http://www.w3.org/2000/svg"
   xmlns:sodipodi="http://sodipodi.sourceforge.net/DTD/sodipodi-0.dtd"
   xmlns:inkscape="http://www.inkscape.org/namespaces/inkscape"
   version="1.1"
   id="Capa_1"
   x="0px"
   y="0px"
   width="32"
   height="32"
   viewBox="0 0 27.4085 27.4085"
   xml:space="preserve"
   inkscape:version="0.91 r13725"
   sodipodi:docname="32x32_pause_disabled.svg"><metadata
     id="metadata45"><rdf:RDF><cc:Work
         rdf:about=""><dc:format>image/svg+xml</dc:format><dc:type
           rdf:resource="http://purl.org/dc/dcmitype/StillImage" /><dc:title></dc:title></cc:Work></rdf:RDF></metadata><defs
     id="defs43" /><sodipodi:namedview
     pagecolor="#ffffff"
     bordercolor="#666666"
     borderopacity="1"
     objecttolerance="10"
     gridtolerance="10"
     guidetolerance="10"
     inkscape:pageopacity="0"
     inkscape:pageshadow="2"
     inkscape:window-width="1253"
     inkscape:window-height="784"
     id="namedview41"
     showgrid="false"
     inkscape:showpageshadow="false"
     inkscape:zoom="1.1367162"
     inkscape:cx="255.99999"
     inkscape:cy="255.99942"
     inkscape:window-x="214"
     inkscape:window-y="5"
     inkscape:window-maximized="0"
     inkscape:current-layer="Capa_1" /><g
     id="g3"
     transform="translate(0,-411.12751)"><g
       id="g5"><path
         d="M 164.453,0 18.276,0 C 13.324,0 9.041,1.807 5.425,5.424 1.808,9.04 0.001,13.322 0.001,18.271 l 0,401.991 c 0,4.948 1.807,9.233 5.424,12.847 3.619,3.617 7.902,5.428 12.851,5.428 l 146.181,0 c 4.949,0 9.231,-1.811 12.847,-5.428 3.617,-3.613 5.424,-7.898 5.424,-12.847 l 0,-401.991 C 182.728,13.319 180.921,9.04 177.3,5.424 173.685,1.807 169.402,0 164.453,0 Z"
         id="path7"
         inkscape:connector-curvature="0"
         style="fill:#d9d9d9" /><path
         d="M 433.113,5.424 C 429.496,1.807 425.215,0 420.267,0 L 274.086,0 c -4.949,0 -9.237,1.807 -12.847,5.424 -3.621,3.615 -5.432,7.898 -5.432,12.847 l 0,401.991 c 0,4.948 1.811,9.233 5.432,12.847 3.609,3.617 7.897,5.428 12.847,5.428 l 146.181,0 c 4.948,0 9.229,-1.811 12.847,-5.428 3.614,-3.613 5.421,-7.898 5.421,-12.847 l 0,-401.991 C 438.534,13.319 436.73,9.04 433.113,5.424 Z"
         id="path9"
         inkscape:connector-curvature="0"
         style="fill:#d9d9d9" /></g></g><g
     id="g11"
     transform="translate(0,-411.12751)" /><g
     id="g13"
     transform="translate(0,-411.12751)" /><g
     id="g15"
     transform="translate(0,-411.12751)" /><g
     id="g17"
     transform="translate(0,-411.12751)" /><g
     id="g19"
     transform="translate(0,-411.12751)" /><g
     id="g21"
     transform="translate(0,-411.12751)" /><g
     id="g23"
     transform="translate(0,-411.12751)" /><g
     id="g25"
     transform="translate(0,-411.12751)" /><g
     id="g27"
     transform="translate(0,-411.12751)" /><g
     id="g29"
     transform="translate(0,-411.12751)" /><g
     id="g31"
     transform="translate(0,-411.12751)" /><g
     id="g33"
     transform="translate(0,-411.12751)" /><g
     id="g35"
     transform="translate(0,-411.12751)" /><g
     id="g37"
     transform="translate(0,-411.12751)" /><g
     id="g39"
     transform="translate(0,-411.12751)" /></svg>