<?xml version="1.0" encoding="UTF-8" standalone="no"?>
<!-- Created with Inkscape (http://www.inkscape.org/) -->

<svg
   xmlns:dc="http://purl.org/dc/elements/1.1/"
   xmlns:cc="http://creativecommons.org/ns#"
   xmlns:rdf="http://www.w3.org/1999/02/22-rdf-syntax-ns#"
   xmlns:svg="http://www.w3.org/2000/svg"
   xmlns="http://www.w3.org/2000/svg"
   xmlns:sodipodi="http://sodipodi.sourceforge.net/DTD/sodipodi-0.dtd"
   xmlns:inkscape="http://www.inkscape.org/namespaces/inkscape"
   version="1.0"
   width="16"
   height="16"
   viewBox="0 0 16 16"
   id="Layer_1"
   xml:space="preserve"
   inkscape:version="0.91 r13725"
   sodipodi:docname="16x16_USB_thumbnail.svg"><metadata
     id="metadata7"><rdf:RDF><cc:Work
         rdf:about=""><dc:format>image/svg+xml</dc:format><dc:type
           rdf:resource="http://purl.org/dc/dcmitype/StillImage" /><dc:title></dc:title></cc:Work></rdf:RDF></metadata><sodipodi:namedview
     pagecolor="#ffffff"
     bordercolor="#666666"
     borderopacity="1"
     objecttolerance="10"
     gridtolerance="10"
     guidetolerance="10"
     inkscape:pageopacity="0"
     inkscape:pageshadow="2"
     inkscape:window-width="1792"
     inkscape:window-height="855"
     id="namedview5"
     showgrid="false"
     inkscape:zoom="21.681312"
     inkscape:cx="8.8106511"
     inkscape:cy="9.4912429"
     inkscape:window-x="67"
     inkscape:window-y="34"
     inkscape:window-maximized="0"
     inkscape:current-layer="Layer_1" /><defs
     id="defs1337" /><path
     d="m 15.953456,7.6777986 -1.761873,-1.0174716 0,0.7258148 -9.0054266,0 1.7534583,-1.852547 C 7.0888406,5.4139822 7.2840881,5.3300747 7.484934,5.3254253 c 0.8125035,0 1.2950055,-2.072e-4 1.4726117,-5.601e-4 0.1203877,0.3429961 0.4437697,0.5905622 0.8282083,0.5905622 0.48634,0 0.881025,-0.3946493 0.881025,-0.8811604 0,-0.4867296 -0.39465,-0.8812388 -0.881025,-0.8812388 -0.3844386,0 -0.7078206,0.2474316 -0.8282083,0.5901422 l -1.455358,-2.465e-4 c -0.3944386,0 -0.8077499,0.2164094 -1.0708146,0.4701094 0.00718,-0.00751 0.014649,-0.015572 -4.224e-4,1.4e-4 -0.00555,0.00627 -1.8603602,1.965292 -1.8603602,1.965292 C 4.4216811,7.2978986 4.2265395,7.3812795 4.0258348,7.386069 l -1.0187369,0 C 2.8720621,6.7130724 2.2777635,6.2060311 1.5648735,6.2060311 c -0.81278515,0 -1.47162627,0.6588411 -1.47162627,1.471381 0,0.8127808 0.65884112,1.4716612 1.47162627,1.4716612 0.7130311,0 1.3073292,-0.507467 1.442365,-1.1810295 l 1.0008849,0 c 0.00257,0 0.00515,1.4e-4 0.00775,0 l 2.2137767,0 c 0.2003182,0.00504 0.3952134,0.088591 0.5439816,0.2081695 0,0 1.8543742,1.9588837 1.8601137,1.9652197 0.014861,0.01574 0.00747,0.0076 1.406e-4,1.4e-4 0.2630647,0.253666 0.6765524,0.469935 1.0710611,0.469935 l 1.4025409,-3.19e-4 0,0.590742 1.762332,0 0,-1.7621531 -1.762332,0 0,0.5899681 c 0,0 -0.369403,-5.6e-4 -1.4197241,-5.6e-4 -0.2008841,-0.0045 -0.3963427,-0.088417 -0.5454986,-0.2080293 l -1.7538454,-1.8528944 6.8031631,0 0,0.7269744 1.761874,-1.0173261 z"
     id="path1334"
     inkscape:connector-curvature="0" /></svg>